<svg width="21" height="21" viewBox="0 0 21 21" fill="none" xmlns="http://www.w3.org/2000/svg">
<path d="M9.38477 18.7135V15.2552L6.67643 17.9219L5.50977 16.7552L9.38477 12.8802V11.2135H7.7181L3.8431 15.0885L2.67643 13.9219L5.3431 11.2135H1.88477V9.54687H5.3431L2.67643 6.83854L3.8431 5.67187L7.7181 9.54687H9.38477V7.88021L5.50977 4.00521L6.67643 2.83854L9.38477 5.50521V2.04688H11.0514V5.50521L13.7598 2.83854L14.9264 4.00521L11.0514 7.88021V9.54687H12.7181L16.5931 5.67187L17.7598 6.83854L15.0931 9.54687H18.5514V11.2135H15.0931L17.7598 13.9219L16.5931 15.0885L12.7181 11.2135H11.0514V12.8802L14.9264 16.7552L13.7598 17.9219L11.0514 15.2552V18.7135H9.38477Z" fill="#262626"/>
</svg>
