<svg width="18" height="18" viewBox="0 0 18 18" fill="none" xmlns="http://www.w3.org/2000/svg">
<g id="bathtub_FILL0_wght400_GRAD0_opsz40 1">
<path id="Vector" d="M5.16349 6.76251C4.77532 6.76251 4.44271 6.62429 4.16563 6.34787C3.88854 6.07146 3.75 5.73917 3.75 5.35101C3.75 4.96284 3.88821 4.63022 4.16464 4.35313C4.44105 4.07604 4.77334 3.9375 5.1615 3.9375C5.54966 3.9375 5.88229 4.07571 6.15938 4.35214C6.43645 4.62855 6.57499 4.96084 6.57499 5.349C6.57499 5.73716 6.43678 6.06979 6.16037 6.34688C5.88394 6.62396 5.55165 6.76251 5.16349 6.76251ZM3.57281 16.5C3.35344 16.5 3.16146 16.4281 2.99687 16.2844C2.83228 16.1406 2.74999 15.9625 2.74999 15.75C2.40624 15.75 2.11197 15.6276 1.86718 15.3828C1.62239 15.138 1.5 14.8438 1.5 14.5V9.75H3.75V9.21508C3.75 8.76336 3.90833 8.37916 4.22499 8.0625C4.54167 7.74584 4.92658 7.58751 5.37973 7.58751C5.61824 7.58751 5.84375 7.63334 6.05625 7.725C6.26875 7.81666 6.45833 7.94999 6.62499 8.12499L7.62499 9.24999C7.71666 9.34999 7.80938 9.44166 7.90313 9.525C7.99688 9.60834 8.09583 9.68334 8.19999 9.75H13.75V3.53751C13.75 3.32132 13.6771 3.13602 13.5313 2.98161C13.3854 2.82719 13.2042 2.74999 12.9875 2.74999C12.8802 2.74999 12.7773 2.76353 12.6789 2.79062C12.5805 2.81771 12.4917 2.87083 12.4125 2.94999L11.45 3.91249C11.5125 4.12499 11.5229 4.33853 11.4812 4.55312C11.4396 4.76771 11.3625 4.97083 11.25 5.16249L9.28749 3.24999C9.48279 3.12143 9.69204 3.03929 9.91523 3.00356C10.1384 2.96785 10.3583 2.99166 10.575 3.075L11.5375 2.12499C11.7292 1.93333 11.9491 1.78125 12.1974 1.66875C12.4456 1.55625 12.709 1.5 12.9875 1.5C13.5524 1.5 14.0291 1.69792 14.4174 2.09376C14.8058 2.48958 15 2.97083 15 3.53751V9.75H16.5V14.5C16.5 14.8438 16.3776 15.138 16.1328 15.3828C15.888 15.6276 15.5938 15.75 15.25 15.75C15.25 15.9625 15.1677 16.1406 15.0031 16.2844C14.8385 16.4281 14.6417 16.5 14.4125 16.5H3.57281ZM2.74999 14.5H15.25V11H2.74999V14.5Z" fill="#262626"/>
</g>
</svg>
