<svg width="21" height="20" viewBox="0 0 21 20" fill="none" xmlns="http://www.w3.org/2000/svg">
<g id="shower_FILL0_wght300_GRAD0_opsz20 1">
<path id="Vector" d="M7.38174 14.0297C7.17271 14.0297 6.99074 13.9521 6.83582 13.7968C6.68091 13.6415 6.60345 13.4594 6.60345 13.2503C6.60345 13.0413 6.68109 12.8628 6.83639 12.7148C6.99168 12.5669 7.17384 12.4929 7.38286 12.4929C7.59188 12.4929 7.77037 12.5656 7.91834 12.711C8.06632 12.8564 8.1403 13.0365 8.1403 13.2515C8.1403 13.4605 8.06761 13.6425 7.92222 13.7974C7.77682 13.9523 7.59666 14.0297 7.38174 14.0297ZM10.2038 14.0297C9.98891 14.0297 9.80894 13.9521 9.66393 13.7968C9.51891 13.6415 9.44641 13.4594 9.44641 13.2503C9.44641 13.0413 9.5191 12.8628 9.66449 12.7148C9.80988 12.5669 9.99004 12.4929 10.205 12.4929C10.4199 12.4929 10.5999 12.5656 10.7449 12.711C10.8899 12.8564 10.9624 13.0365 10.9624 13.2515C10.9624 13.4605 10.8897 13.6425 10.7443 13.7974C10.5989 13.9523 10.4188 14.0297 10.2038 14.0297ZM13.0259 14.0297C12.8169 14.0297 12.6384 13.9521 12.4905 13.7968C12.3425 13.6415 12.2685 13.4594 12.2685 13.2503C12.2685 13.0413 12.3412 12.8628 12.4866 12.7148C12.632 12.5669 12.8122 12.4929 13.0271 12.4929C13.2361 12.4929 13.4181 12.5656 13.573 12.711C13.7279 12.8564 13.8054 13.0365 13.8054 13.2515C13.8054 13.4605 13.7277 13.6425 13.5724 13.7974C13.4171 13.9523 13.235 14.0297 13.0259 14.0297ZM5.12109 10.8326V9.74933C5.12109 8.43726 5.55502 7.30238 6.42286 6.3447C7.2907 5.38702 8.37066 4.83761 9.66276 4.69647V3.16602H10.7461V4.70539C12.0409 4.83727 13.1216 5.38254 13.988 6.3412C14.8545 7.29987 15.2877 8.43591 15.2877 9.74933V10.8326H5.12109ZM6.20441 9.74933H14.2044C14.2044 8.63822 13.8139 7.69377 13.033 6.916C12.2521 6.13822 11.3077 5.74933 10.1997 5.74933C9.09173 5.74933 8.14885 6.13933 7.37107 6.91933C6.5933 7.69933 6.20441 8.64266 6.20441 9.74933ZM7.38174 16.2685C7.17271 16.2685 6.99074 16.1958 6.83582 16.0504C6.68091 15.905 6.60345 15.7249 6.60345 15.51C6.60345 15.295 6.68109 15.1151 6.83639 14.97C6.99168 14.825 7.17384 14.7525 7.38286 14.7525C7.59188 14.7525 7.77037 14.8252 7.91834 14.9706C8.06632 15.116 8.1403 15.2961 8.1403 15.5111C8.1403 15.726 8.06761 15.906 7.92222 16.051C7.77682 16.196 7.59666 16.2685 7.38174 16.2685ZM10.2038 16.2685C9.98891 16.2685 9.80894 16.1958 9.66393 16.0504C9.51891 15.905 9.44641 15.7249 9.44641 15.51C9.44641 15.3009 9.5191 15.119 9.66449 14.9641C9.80988 14.8091 9.99004 14.7317 10.205 14.7317C10.4199 14.7317 10.5999 14.8093 10.7449 14.9646C10.8899 15.1199 10.9624 15.3021 10.9624 15.5111C10.9624 15.7201 10.8897 15.8986 10.7443 16.0466C10.5989 16.1945 10.4188 16.2685 10.2038 16.2685ZM13.0259 16.2685C12.8169 16.2685 12.6384 16.1958 12.4905 16.0504C12.3425 15.905 12.2685 15.7249 12.2685 15.51C12.2685 15.295 12.3412 15.1151 12.4866 14.97C12.632 14.825 12.8122 14.7525 13.0271 14.7525C13.2361 14.7525 13.4181 14.8252 13.573 14.9706C13.7279 15.116 13.8054 15.2961 13.8054 15.5111C13.8054 15.726 13.7277 15.906 13.5724 16.051C13.4171 16.196 13.235 16.2685 13.0259 16.2685Z" fill="#838383"/>
</g>
</svg>
