<svg width="18" height="18" viewBox="0 0 18 18" fill="none" xmlns="http://www.w3.org/2000/svg">
<g id="outdoor_grill_FILL0_wght400_GRAD0_opsz24 1">
<path id="Vector" d="M12.0002 12C12.6252 12 13.1565 12.2187 13.594 12.6562C14.0315 13.0937 14.2502 13.625 14.2502 14.25C14.2502 14.875 14.0315 15.4062 13.594 15.8437C13.1565 16.2812 12.6252 16.5 12.0002 16.5C11.5252 16.5 11.0971 16.3625 10.7158 16.0875C10.3346 15.8125 10.0627 15.45 9.90021 15H5.13771L4.38771 16.1625C4.27521 16.3375 4.11584 16.4469 3.90959 16.4906C3.70334 16.5344 3.51271 16.5 3.33771 16.3875C3.16271 16.275 3.05334 16.1156 3.00959 15.9094C2.96584 15.7031 3.00021 15.5125 3.11271 15.3375L6.07521 10.8C5.17521 10.3875 4.43771 9.75312 3.86271 8.89687C3.28771 8.04062 3.00021 7.075 3.00021 6H13.5002C13.5002 7.075 13.2127 8.04062 12.6377 8.89687C12.0627 9.75312 11.3252 10.3875 10.4252 10.8L10.8565 11.475C10.594 11.6 10.3783 11.725 10.2096 11.85C10.0408 11.975 9.85646 12.15 9.65646 12.375L8.90646 11.2125C8.80646 11.2375 8.70021 11.25 8.58771 11.25H7.91271C7.80021 11.25 7.69396 11.2375 7.59396 11.2125L6.11271 13.5H9.90021C10.0627 13.05 10.3346 12.6875 10.7158 12.4125C11.0971 12.1375 11.5252 12 12.0002 12ZM12.0002 15C12.2127 15 12.3908 14.9281 12.5346 14.7844C12.6783 14.6406 12.7502 14.4625 12.7502 14.25C12.7502 14.0375 12.6783 13.8594 12.5346 13.7156C12.3908 13.5719 12.2127 13.5 12.0002 13.5C11.7877 13.5 11.6096 13.5719 11.4658 13.7156C11.3221 13.8594 11.2502 14.0375 11.2502 14.25C11.2502 14.4625 11.3221 14.6406 11.4658 14.7844C11.6096 14.9281 11.7877 15 12.0002 15ZM8.25021 9.75C9.00021 9.75 9.68459 9.54375 10.3033 9.13125C10.9221 8.71875 11.3877 8.175 11.7002 7.5H4.80021C5.12521 8.175 5.59396 8.71875 6.20646 9.13125C6.81896 9.54375 7.50021 9.75 8.25021 9.75ZM6.30021 5.25C6.36271 4.8875 6.35334 4.58125 6.27209 4.33125C6.19084 4.08125 6.01896 3.79375 5.75646 3.46875C5.50646 3.14375 5.34084 2.83437 5.25959 2.54062C5.17834 2.24687 5.16896 1.9 5.23146 1.5H5.98146C5.91896 1.8625 5.92834 2.16562 6.00959 2.40937C6.09084 2.65312 6.26271 2.9375 6.52521 3.2625C6.78771 3.5875 6.95646 3.89687 7.03146 4.19062C7.10646 4.48437 7.11271 4.8375 7.05021 5.25H6.30021ZM8.17521 5.25C8.23771 4.8875 8.23146 4.58125 8.15646 4.33125C8.08146 4.08125 7.91271 3.79375 7.65021 3.46875C7.38771 3.15625 7.21584 2.85312 7.13459 2.55937C7.05334 2.26562 7.04396 1.9125 7.10646 1.5H7.85646C7.79396 1.8625 7.80334 2.16562 7.88459 2.40937C7.96584 2.65312 8.13771 2.9375 8.40021 3.2625C8.65021 3.575 8.81584 3.87812 8.89709 4.17187C8.97834 4.46562 8.98771 4.825 8.92521 5.25H8.17521ZM10.0502 5.25C10.1127 4.8875 10.1065 4.58125 10.0315 4.33125C9.95646 4.08125 9.78771 3.79375 9.52521 3.46875C9.26271 3.15625 9.09084 2.85312 9.00959 2.55937C8.92834 2.26562 8.91896 1.9125 8.98146 1.5H9.73146C9.66896 1.8625 9.67834 2.16562 9.75959 2.40937C9.84084 2.65312 10.0127 2.9375 10.2752 3.2625C10.5252 3.575 10.6908 3.87812 10.7721 4.17187C10.8533 4.46562 10.8627 4.825 10.8002 5.25H10.0502Z" fill="black"/>
</g>
</svg>
