<svg width="21" height="20" viewBox="0 0 21 20" fill="none" xmlns="http://www.w3.org/2000/svg">
<g id="single_bed_FILL0_wght300_GRAD0_opsz20 1">
<path id="Vector" d="M6.35726 14.5834H6.0496L5.41178 12.5834H4.62012V9.26454C4.62012 8.88955 4.75097 8.57118 5.01268 8.30943C5.27437 8.04767 5.5901 7.91679 5.95987 7.91679H6.12012V6.17323C6.12012 5.80346 6.25108 5.48773 6.51301 5.22604C6.77493 4.96434 7.09093 4.8335 7.46101 4.8335H12.9528C13.3229 4.8335 13.6377 4.96434 13.8973 5.22604C14.1569 5.48773 14.2867 5.80346 14.2867 6.17323V7.91679H14.447C14.8209 7.91679 15.1377 8.04764 15.3973 8.30935C15.6569 8.57104 15.7867 8.88677 15.7867 9.25654V12.5834H14.9951L14.3573 14.5834H14.0496L13.4118 12.5834H6.99508L6.35726 14.5834ZM10.7451 7.91679H13.2034V6.17323C13.2034 6.09843 13.1794 6.037 13.1313 5.98891C13.0832 5.94083 13.0218 5.91679 12.947 5.91679H10.7451V7.91679ZM7.20343 7.91679H9.66178V5.91679H7.45987C7.38508 5.91679 7.32364 5.94083 7.27555 5.98891C7.22747 6.037 7.20343 6.09843 7.20343 6.17323V7.91679ZM5.70343 11.5001H14.7034V9.25654C14.7034 9.18175 14.6794 9.12031 14.6313 9.07223C14.5832 9.02414 14.5218 9.0001 14.447 9.0001H5.95987C5.88508 9.0001 5.82364 9.02414 5.77555 9.07223C5.72747 9.12031 5.70343 9.18175 5.70343 9.25654V11.5001Z" fill="#838383"/>
</g>
</svg>
