<svg width="21" height="21" viewBox="0 0 21 21" fill="none" xmlns="http://www.w3.org/2000/svg">
<path d="M5.47786 17.957C5.01953 17.957 4.62717 17.7938 4.30078 17.4674C3.97439 17.1411 3.8112 16.7487 3.8112 16.2904V9.16536C3.29731 8.85981 2.89106 8.45356 2.59245 7.94661C2.29384 7.43967 2.14453 6.88759 2.14453 6.29036C2.14453 5.3737 2.47092 4.58898 3.1237 3.9362C3.77648 3.28342 4.5612 2.95703 5.47786 2.95703H15.4779C16.3945 2.95703 17.1793 3.28342 17.832 3.9362C18.4848 4.58898 18.8112 5.3737 18.8112 6.29036C18.8112 6.88759 18.6619 7.43967 18.3633 7.94661C18.0647 8.45356 17.6584 8.85981 17.1445 9.16536V16.2904C17.1445 16.7487 16.9813 17.1411 16.6549 17.4674C16.3286 17.7938 15.9362 17.957 15.4779 17.957H5.47786ZM5.47786 16.2904H15.4779V8.20703L16.3112 7.70703C16.5612 7.55425 16.7626 7.35286 16.9154 7.10286C17.0681 6.85286 17.1445 6.58203 17.1445 6.29036C17.1445 5.83203 16.9813 5.43967 16.6549 5.11328C16.3286 4.78689 15.9362 4.6237 15.4779 4.6237H5.47786C5.01953 4.6237 4.62717 4.78689 4.30078 5.11328C3.97439 5.43967 3.8112 5.83203 3.8112 6.29036C3.8112 6.59592 3.88411 6.87717 4.02995 7.13411C4.17578 7.39106 4.38064 7.59592 4.64453 7.7487L5.47786 8.20703V16.2904ZM9.89453 14.3737C10.0612 14.5265 10.2591 14.6029 10.4883 14.6029C10.7174 14.6029 10.9084 14.5265 11.0612 14.3737L13.5612 11.8737C13.7279 11.707 13.8112 11.5091 13.8112 11.2799C13.8112 11.0508 13.7279 10.8598 13.5612 10.707L11.0612 8.20703C10.9084 8.04036 10.7174 7.95703 10.4883 7.95703C10.2591 7.95703 10.0612 8.04036 9.89453 8.20703L7.39453 10.707C7.24175 10.8598 7.16536 11.0508 7.16536 11.2799C7.16536 11.5091 7.24175 11.707 7.39453 11.8737L9.89453 14.3737ZM10.4779 12.6237L9.14453 11.2904L10.4779 9.95703L11.8112 11.2904L10.4779 12.6237Z" fill="#262626"/>
</svg>
