<svg width="18" height="18" viewBox="0 0 18 18" fill="none" xmlns="http://www.w3.org/2000/svg">
<g id="nest_cam_outdoor_FILL0_wght400_GRAD0_opsz24 1">
<path id="Vector" d="M10.8 14.4563C10.525 14.7813 10.1844 14.9656 9.77813 15.0094C9.37188 15.0531 9.00625 14.9375 8.68125 14.6625L5.5125 12.0188C5.1875 11.7563 4.90625 11.4563 4.66875 11.1188C4.43125 10.7813 4.2375 10.4188 4.0875 10.0313C3.95 10.1813 3.7875 10.2969 3.6 10.3781C3.4125 10.4594 3.2125 10.5 3 10.5H1.5V4.5H3C3.3625 4.5 3.68438 4.6125 3.96563 4.8375C4.24688 5.0625 4.41875 5.35625 4.48125 5.71875C4.95625 4.99375 5.56875 4.42188 6.31875 4.00313C7.06875 3.58437 7.875 3.375 8.7375 3.375C9.3 3.375 9.83438 3.475 10.3406 3.675C10.8469 3.875 11.3125 4.15625 11.7375 4.51875L14.925 7.1625C15.25 7.425 15.4281 7.75938 15.4594 8.16563C15.4906 8.57188 15.375 8.9375 15.1125 9.2625L10.8 14.4563ZM5.25 8.23125C5.2375 8.74375 5.34063 9.22813 5.55938 9.68438C5.77813 10.1406 6.08125 10.5313 6.46875 10.8563L9.6375 13.5L13.95 8.30625L10.7813 5.6625C10.4813 5.4125 10.15 5.22188 9.7875 5.09063C9.425 4.95938 9.05 4.89375 8.6625 4.89375C7.725 4.88125 6.925 5.2 6.2625 5.85C5.6 6.5 5.2625 7.29375 5.25 8.23125Z" fill="black"/>
</g>
</svg>
