<svg width="18" height="18" viewBox="0 0 18 18" fill="none" xmlns="http://www.w3.org/2000/svg">
<g id="fire_extinguisher_FILL0_wght400_GRAD0_opsz24 1">
<path id="Vector" d="M6.75 16.5C6.3375 16.5 5.98438 16.3531 5.69063 16.0594C5.39688 15.7656 5.25 15.4125 5.25 15V14.25H12.75V15C12.75 15.4125 12.6031 15.7656 12.3094 16.0594C12.0156 16.3531 11.6625 16.5 11.25 16.5H6.75ZM5.25 13.5V9.75H12.75V13.5H5.25ZM5.325 9C5.45 8.425 5.7125 7.88438 6.1125 7.37813C6.5125 6.87188 7.01875 6.5 7.63125 6.2625C7.50625 6.1625 7.39375 6.05313 7.29375 5.93438C7.19375 5.81563 7.10625 5.6875 7.03125 5.55L3.75 4.875V4.125L7.03125 3.45C7.21875 3.0875 7.48438 2.79688 7.82812 2.57812C8.17188 2.35938 8.5625 2.25 9 2.25C9.2625 2.25 9.5125 2.29375 9.75 2.38125C9.9875 2.46875 10.2 2.5875 10.3875 2.7375L12.75 2.25V6.75L10.3688 6.2625C10.9563 6.5 11.4531 6.85938 11.8594 7.34063C12.2656 7.82188 12.5375 8.375 12.675 9H5.325ZM9 5.25C9.2125 5.25 9.39062 5.17813 9.53438 5.03438C9.67813 4.89062 9.75 4.7125 9.75 4.5C9.7375 4.275 9.6625 4.09375 9.525 3.95625C9.3875 3.81875 9.2125 3.75 9 3.75C8.7875 3.75 8.60938 3.82188 8.46563 3.96563C8.32188 4.10938 8.25 4.2875 8.25 4.5C8.25 4.7125 8.32188 4.89062 8.46563 5.03438C8.60938 5.17813 8.7875 5.25 9 5.25Z" fill="black"/>
</g>
</svg>
