<svg width="20" height="21" viewBox="0 0 20 21" fill="none" xmlns="http://www.w3.org/2000/svg">
<path d="M11.1686 18.75L10.002 17.5833L12.9603 14.625L5.87695 7.54167L2.91862 10.5L1.75195 9.33333L2.91862 8.125L1.75195 6.95833L3.50195 5.20833L2.33529 4L3.50195 2.83333L4.71029 4L6.46029 2.25L7.62695 3.41667L8.83529 2.25L10.002 3.41667L7.04362 6.375L14.127 13.4583L17.0853 10.5L18.252 11.6667L17.0853 12.875L18.252 14.0417L16.502 15.7917L17.6686 17L16.502 18.1667L15.2936 17L13.5436 18.75L12.377 17.5833L11.1686 18.75Z" fill="#262626"/>
</svg>
