<svg width="21" height="21" viewBox="0 0 21 21" fill="none" xmlns="http://www.w3.org/2000/svg">
<path d="M7.0306 7.04687V4.54687H8.69727V7.04687H7.0306ZM7.0306 14.5469V10.3802H8.69727V14.5469H7.0306ZM5.36393 18.7135C4.9056 18.7135 4.51324 18.5503 4.18685 18.224C3.86046 17.8976 3.69727 17.5052 3.69727 17.0469V3.71354C3.69727 3.25521 3.86046 2.86285 4.18685 2.53646C4.51324 2.21007 4.9056 2.04688 5.36393 2.04688H15.3639C15.8223 2.04688 16.2146 2.21007 16.541 2.53646C16.8674 2.86285 17.0306 3.25521 17.0306 3.71354V17.0469C17.0306 17.5052 16.8674 17.8976 16.541 18.224C16.2146 18.5503 15.8223 18.7135 15.3639 18.7135H5.36393ZM5.36393 17.0469H15.3639V9.54687H5.36393V17.0469ZM5.36393 7.88021H15.3639V3.71354H5.36393V7.88021Z" fill="#262626"/>
</svg>
