<svg width="19" height="20" viewBox="0 0 19 20" fill="none" xmlns="http://www.w3.org/2000/svg">
<path d="M3.42836 9.46668C2.91063 9.46668 2.47363 9.28794 2.11738 8.93045C1.76113 8.57296 1.58301 8.13534 1.58301 7.61761C1.58301 7.09987 1.76175 6.66288 2.11924 6.30663C2.47673 5.95038 2.91435 5.77225 3.43208 5.77225C3.94982 5.77225 4.38681 5.951 4.74306 6.30849C5.09931 6.66598 5.27744 7.10359 5.27744 7.62133C5.27744 8.13906 5.09869 8.57606 4.7412 8.93231C4.38373 9.28856 3.94611 9.46668 3.42836 9.46668ZM7.05685 6.16806C6.5391 6.16806 6.1021 5.98932 5.74585 5.63183C5.3896 5.27435 5.21147 4.83674 5.21147 4.31899C5.21147 3.80125 5.39022 3.36426 5.74771 3.00801C6.1052 2.65176 6.54281 2.47363 7.06055 2.47363C7.5783 2.47363 8.0153 2.65238 8.37155 3.00987C8.7278 3.36736 8.90593 3.80497 8.90593 4.32271C8.90593 4.84045 8.72718 5.27744 8.36969 5.63369C8.0122 5.98994 7.57459 6.16806 7.05685 6.16806ZM11.9388 6.16806C11.4211 6.16806 10.9841 5.98932 10.6278 5.63183C10.2716 5.27435 10.0934 4.83674 10.0934 4.31899C10.0934 3.80125 10.2722 3.36426 10.6297 3.00801C10.9872 2.65176 11.4248 2.47363 11.9425 2.47363C12.4603 2.47363 12.8973 2.65238 13.2535 3.00987C13.6098 3.36736 13.7879 3.80497 13.7879 4.32271C13.7879 4.84045 13.6091 5.27744 13.2516 5.63369C12.8942 5.98994 12.4565 6.16806 11.9388 6.16806ZM15.5673 9.46668C15.0495 9.46668 14.6125 9.28794 14.2563 8.93045C13.9 8.57296 13.7219 8.13534 13.7219 7.61761C13.7219 7.09987 13.9007 6.66288 14.2581 6.30663C14.6156 5.95038 15.0532 5.77225 15.571 5.77225C16.0887 5.77225 16.5257 5.951 16.882 6.30849C17.2382 6.66598 17.4163 7.10359 17.4163 7.62133C17.4163 8.13906 17.2376 8.57606 16.8801 8.93231C16.5226 9.28856 16.085 9.46668 15.5673 9.46668ZM5.26426 17.5153C4.6969 17.5153 4.22739 17.3008 3.85574 16.8717C3.48411 16.4427 3.29829 15.9359 3.29829 15.3514C3.29829 14.7533 3.48851 14.2255 3.86895 13.7681C4.24938 13.3107 4.64411 12.8665 5.05314 12.4355C5.3742 12.1056 5.66448 11.7526 5.92397 11.3766C6.18346 11.0006 6.45174 10.6278 6.72882 10.2584C7.08068 9.757 7.47872 9.30179 7.92293 8.89274C8.36715 8.48372 8.89273 8.2792 9.49968 8.2792C10.1066 8.2792 10.6344 8.48152 11.083 8.88615C11.5316 9.29079 11.9319 9.7482 12.2837 10.2584C12.5564 10.6278 12.8214 10.9995 13.0787 11.3733C13.336 11.7472 13.6251 12.1012 13.9462 12.4355C14.3552 12.8665 14.75 13.3107 15.1304 13.7681C15.5108 14.2255 15.7011 14.7533 15.7011 15.3514C15.7011 15.9359 15.5152 16.4427 15.1436 16.8717C14.772 17.3008 14.3025 17.5153 13.7351 17.5153C13.0226 17.5153 12.3167 17.4559 11.6174 17.3372C10.9181 17.2184 10.2122 17.1591 9.49968 17.1591C8.78718 17.1591 8.08127 17.2184 7.38197 17.3372C6.68266 17.4559 5.97676 17.5153 5.26426 17.5153Z" fill="#262626"/>
<path d="M4.9502 3.9248L17.1299 16.5991" stroke="#F2F2F2" stroke-width="2"/>
<line x1="2.5708" y1="3.45144" x2="17.0533" y2="18.5211" stroke="#262626" stroke-width="1.58333"/>
</svg>
