<svg width="18" height="18" viewBox="0 0 18 18" fill="none" xmlns="http://www.w3.org/2000/svg">
<g id="pool_FILL0_wght400_GRAD0_opsz40 1">
<path id="Vector" d="M1.5 15.7498V14.4498C1.95834 14.4248 2.31667 14.2956 2.57499 14.0623C2.83333 13.829 3.27083 13.7123 3.88749 13.7123C4.50416 13.7123 4.97708 13.8436 5.30625 14.1061C5.63541 14.3686 6.03333 14.4998 6.50001 14.4998C6.96667 14.4998 7.34583 14.3686 7.63749 14.1061C7.92917 13.8436 8.38334 13.7123 9 13.7123C9.61666 13.7123 10.0896 13.8436 10.4188 14.1061C10.7479 14.3686 11.1458 14.4998 11.6125 14.4998C12.0792 14.4998 12.4604 14.3686 12.7563 14.1061C13.0521 13.8436 13.5083 13.7123 14.125 13.7123C14.7417 13.7123 15.1771 13.829 15.4313 14.0623C15.6854 14.2956 16.0417 14.4248 16.5 14.4498V15.7498C15.9625 15.7248 15.549 15.5894 15.2594 15.3436C14.9698 15.0977 14.5917 14.9748 14.125 14.9748C13.6583 14.9748 13.2688 15.104 12.9563 15.3623C12.6438 15.6206 12.1958 15.7498 11.6125 15.7498C11.0292 15.7498 10.5646 15.6206 10.2188 15.3623C9.87291 15.104 9.46666 14.9748 9 14.9748C8.53334 14.9748 8.1375 15.104 7.81249 15.3623C7.48749 15.6206 7.03333 15.7498 6.45 15.7498C5.86668 15.7498 5.41043 15.6206 5.08125 15.3623C4.75209 15.104 4.35417 14.9748 3.88749 14.9748C3.42083 14.9748 3.04063 15.0977 2.74688 15.3436C2.45313 15.5894 2.0375 15.7248 1.5 15.7498ZM1.5 12.2748V11.0248C1.95834 10.9998 2.31667 10.8727 2.57499 10.6436C2.83333 10.4144 3.27083 10.2998 3.88749 10.2998C4.50416 10.2998 4.96978 10.4207 5.28437 10.6623C5.59896 10.904 5.9875 11.0248 6.45 11.0248C6.91666 11.0248 7.30416 10.904 7.6125 10.6623C7.92084 10.4207 8.38334 10.2998 9 10.2998C9.61666 10.2998 10.0812 10.4207 10.3937 10.6623C10.7062 10.904 11.0958 11.0248 11.5625 11.0248C12.0292 11.0248 12.4188 10.904 12.7313 10.6623C13.0438 10.4207 13.5083 10.2998 14.125 10.2998C14.7417 10.2998 15.1771 10.4144 15.4313 10.6436C15.6854 10.8727 16.0417 10.9998 16.5 11.0248V12.2748C15.9625 12.2498 15.549 12.1144 15.2594 11.8686C14.9698 11.6227 14.5917 11.4998 14.125 11.4998C13.6583 11.4998 13.2719 11.629 12.9656 11.8873C12.6594 12.1456 12.2083 12.2748 11.6125 12.2748C11.025 12.2748 10.5594 12.1456 10.2156 11.8873C9.87187 11.629 9.46666 11.4998 9 11.4998C8.525 11.4998 8.13854 11.629 7.84063 11.8873C7.54271 12.1456 7.09583 12.2748 6.50001 12.2748C5.90417 12.2748 5.43646 12.1456 5.09687 11.8873C4.75729 11.629 4.35417 11.4998 3.88749 11.4998C3.42083 11.4998 3.04063 11.6227 2.74688 11.8686C2.45313 12.1144 2.0375 12.2498 1.5 12.2748ZM5.325 8.39981L7.84376 5.88105L6.91875 4.95605C6.49791 4.53522 6.06458 4.24564 5.61876 4.08731C5.17292 3.92897 4.6125 3.8498 3.9375 3.8498V2.2373C4.85 2.2373 5.60208 2.34668 6.19374 2.56543C6.78542 2.78418 7.36251 3.1748 7.92501 3.7373L12.6875 8.4998C12.525 8.62064 12.35 8.71127 12.1625 8.77168C11.975 8.83209 11.775 8.8623 11.5625 8.8623C11.0958 8.8623 10.7042 8.73314 10.3875 8.47481C10.0708 8.21647 9.60833 8.08731 9 8.08731C8.39168 8.08731 7.93126 8.21647 7.61874 8.47481C7.30624 8.73314 6.91666 8.8623 6.45 8.8623C6.2125 8.8623 6 8.81959 5.8125 8.73418C5.625 8.64877 5.4625 8.53731 5.325 8.39981ZM12.525 2.28731C13.0333 2.28731 13.4625 2.46335 13.8125 2.81544C14.1625 3.16752 14.3375 3.59564 14.3375 4.09982C14.3375 4.60814 14.1625 5.0373 13.8125 5.3873C13.4625 5.7373 13.0333 5.9123 12.525 5.9123C12.0167 5.9123 11.5875 5.7373 11.2375 5.3873C10.8875 5.0373 10.7125 4.60814 10.7125 4.09982C10.7125 3.59564 10.8875 3.16752 11.2375 2.81544C11.5875 2.46335 12.0167 2.28731 12.525 2.28731Z" fill="#262626"/>
</g>
</svg>
