<svg width="18" height="18" viewBox="0 0 18 18" fill="none" xmlns="http://www.w3.org/2000/svg">
<g id="detector_alarm_FILL0_wght400_GRAD0_opsz24 2">
<path id="Vector" d="M8.25 15.75V12H9.75V15.75H8.25ZM14.3063 13.8563L11.6438 11.2125L12.7125 10.1438L15.3563 12.8063L14.3063 13.8563ZM3.69375 13.8563L2.64375 12.8063L5.2875 10.1438L6.35625 11.2125L3.69375 13.8563ZM3.75 3.75V4.5H14.25V3.75H3.75ZM6.075 6L6.3 6.75H11.7L11.925 6H6.075ZM6.3 8.25C5.975 8.25 5.68125 8.15313 5.41875 7.95938C5.15625 7.76562 4.975 7.5125 4.875 7.2L4.5 6H3.75C3.3375 6 2.98438 5.85313 2.69063 5.55938C2.39687 5.26562 2.25 4.9125 2.25 4.5V2.25H15.75V4.5C15.75 4.9125 15.6031 5.26562 15.3094 5.55938C15.0156 5.85313 14.6625 6 14.25 6H13.5L13.0125 7.275C12.9 7.5625 12.7188 7.79688 12.4688 7.97813C12.2188 8.15938 11.9375 8.25 11.625 8.25H6.3Z" fill="black"/>
</g>
</svg>
