<svg width="20" height="21" viewBox="0 0 20 21" fill="none" xmlns="http://www.w3.org/2000/svg">
<path d="M6.66602 17.8809V16.2142H3.33268C2.87435 16.2142 2.48199 16.051 2.1556 15.7246C1.82921 15.3982 1.66602 15.0059 1.66602 14.5475V4.54753C1.66602 4.08919 1.82921 3.69683 2.1556 3.37044C2.48199 3.04405 2.87435 2.88086 3.33268 2.88086H16.666C17.1243 2.88086 17.5167 3.04405 17.8431 3.37044C18.1695 3.69683 18.3327 4.08919 18.3327 4.54753V14.5475C18.3327 15.0059 18.1695 15.3982 17.8431 15.7246C17.5167 16.051 17.1243 16.2142 16.666 16.2142H13.3327V17.8809H6.66602ZM3.33268 14.5475H16.666V4.54753H3.33268V14.5475Z" fill="#262626"/>
</svg>
