<svg width="14" height="10" viewBox="0 0 14 10" fill="none" xmlns="http://www.w3.org/2000/svg">
<path id="Vector" d="M0 9.8818V8.58952C0 8.30573 0.0685123 8.05522 0.205537 7.83798C0.34255 7.62076 0.534 7.4403 0.779887 7.29661C1.39265 6.93549 2.03749 6.65108 2.7144 6.44339C3.39132 6.23571 4.16152 6.13186 5.02498 6.13186C5.88844 6.13186 6.65863 6.23571 7.33554 6.44339C8.01247 6.65108 8.65731 6.93549 9.27007 7.29661C9.51596 7.4403 9.70741 7.62076 9.84442 7.83798C9.98144 8.05522 10.0499 8.30573 10.0499 8.58952V9.8818H0ZM11.3999 9.8818V8.64721C11.3999 8.17991 11.3107 7.75136 11.1321 7.36154C10.9535 6.97173 10.7178 6.65462 10.425 6.41022C10.7779 6.51022 11.1271 6.63258 11.4728 6.77729C11.8184 6.92201 12.1591 7.09532 12.4946 7.29723C12.7071 7.41646 12.8783 7.59869 13.0081 7.84394C13.1379 8.08918 13.2028 8.35694 13.2028 8.64721V9.8818H11.3999ZM5.02498 4.77027C4.37812 4.77027 3.82891 4.5445 3.37734 4.09295C2.92578 3.64139 2.7 3.09217 2.7 2.44531C2.7 1.79844 2.92578 1.24922 3.37734 0.797673C3.82891 0.34611 4.37812 0.120329 5.02498 0.120329C5.67184 0.120329 6.22106 0.34611 6.67262 0.797673C7.12417 1.24922 7.34994 1.79844 7.34994 2.44531C7.34994 3.09217 7.12417 3.64139 6.67262 4.09295C6.22106 4.5445 5.67184 4.77027 5.02498 4.77027ZM10.3009 2.44531C10.3009 3.09217 10.0751 3.64139 9.62353 4.09295C9.17197 4.5445 8.62276 4.77027 7.97589 4.77027C7.92878 4.77027 7.90234 4.77316 7.89658 4.77894C7.89082 4.78471 7.86438 4.78231 7.81727 4.77174C8.08804 4.45365 8.30285 4.09979 8.46169 3.71017C8.62053 3.32054 8.69994 2.89862 8.69994 2.44441C8.69994 1.99021 8.61894 1.57008 8.45692 1.18402C8.29491 0.797967 8.08169 0.442923 7.81727 0.118886C7.84996 0.117923 7.87639 0.117923 7.89658 0.118886C7.91677 0.119848 7.94321 0.120329 7.97589 0.120329C8.62276 0.120329 9.17197 0.34611 9.62353 0.797673C10.0751 1.24922 10.3009 1.79844 10.3009 2.44531ZM0.974981 8.90682H9.07498V8.58952C9.07498 8.48941 9.05127 8.40145 9.00384 8.32567C8.95641 8.24987 8.87291 8.17916 8.75334 8.11355C8.22353 7.79529 7.65046 7.54793 7.03412 7.37148C6.41777 7.19504 5.74806 7.10682 5.02498 7.10682C4.30191 7.10682 3.63219 7.19192 3.01584 7.3621C2.39951 7.53231 1.82643 7.78279 1.29662 8.11355C1.17706 8.17772 1.09356 8.24641 1.04612 8.31961C0.998694 8.39282 0.974981 8.48221 0.974981 8.58777V8.90682ZM5.02896 3.79531C5.40131 3.79531 5.71873 3.66273 5.98123 3.39757C6.24373 3.13242 6.37498 2.81367 6.37498 2.44132C6.37498 2.06898 6.24241 1.75156 5.97726 1.48906C5.71209 1.22656 5.39334 1.09531 5.02101 1.09531C4.64866 1.09531 4.33123 1.22789 4.06873 1.49304C3.80623 1.7582 3.67498 2.07695 3.67498 2.44929C3.67498 2.82164 3.80756 3.13906 4.07271 3.40156C4.33787 3.66406 4.65662 3.79531 5.02896 3.79531Z" fill="#838383"/>
</svg>
