<svg width="18" height="18" viewBox="0 0 18 18" fill="none" xmlns="http://www.w3.org/2000/svg">
<g id="local_laundry_service_FILL0_wght400_GRAD0_opsz40 1">
<path id="Vector" d="M4.24999 16.5C3.90624 16.5 3.61197 16.3776 3.36718 16.1328C3.12239 15.888 3 15.5938 3 15.25V2.74999C3 2.40624 3.12239 2.11197 3.36718 1.86718C3.61197 1.62239 3.90624 1.5 4.24999 1.5H13.75C14.0938 1.5 14.388 1.62239 14.6328 1.86718C14.8776 2.11197 15 2.40624 15 2.74999V15.25C15 15.5938 14.8776 15.888 14.6328 16.1328C14.388 16.3776 14.0938 16.5 13.75 16.5H4.24999ZM4.24999 15.25H13.75V2.74999H4.24999V15.25ZM9 14.2625C10.0168 14.2625 10.8834 13.9042 11.6001 13.1876C12.3167 12.4709 12.675 11.6043 12.675 10.5875C12.675 9.57076 12.3167 8.70407 11.6001 7.98744C10.8834 7.27082 10.0168 6.91251 9 6.91251C7.98325 6.91251 7.11656 7.27082 6.39994 7.98744C5.68331 8.70407 5.325 9.57076 5.325 10.5875C5.325 11.6043 5.68331 12.4709 6.39994 13.1876C7.11656 13.9042 7.98325 14.2625 9 14.2625ZM9 12.7875C8.70266 12.7875 8.4139 12.7344 8.13371 12.6281C7.85353 12.5219 7.60479 12.3625 7.3875 12.15L10.55 8.98751C10.7708 9.19168 10.9344 9.43463 11.0406 9.71638C11.1469 9.99813 11.2 10.2885 11.2 10.5875C11.2 11.1986 10.9861 11.7181 10.5583 12.1458C10.1306 12.5736 9.61111 12.7875 9 12.7875ZM5.80219 4.89999C5.97989 4.89999 6.12811 4.83989 6.24686 4.71968C6.36561 4.59946 6.42499 4.45051 6.42499 4.27281C6.42499 4.09509 6.36488 3.94686 6.24467 3.82811C6.12446 3.70938 5.9755 3.65001 5.7978 3.65001C5.6201 3.65001 5.47188 3.71011 5.35313 3.83031C5.23438 3.95052 5.175 4.09948 5.175 4.27719C5.175 4.45489 5.23511 4.60312 5.35532 4.72187C5.47553 4.84062 5.62449 4.89999 5.80219 4.89999ZM8.2272 4.89999C8.4049 4.89999 8.55313 4.83989 8.67188 4.71968C8.79063 4.59946 8.85 4.45051 8.85 4.27281C8.85 4.09509 8.78989 3.94686 8.66968 3.82811C8.54947 3.70938 8.40051 3.65001 8.22281 3.65001C8.0451 3.65001 7.89687 3.71011 7.77812 3.83031C7.65937 3.95052 7.59999 4.09948 7.59999 4.27719C7.59999 4.45489 7.6601 4.60312 7.78031 4.72187C7.90053 4.84062 8.04949 4.89999 8.2272 4.89999Z" fill="#262626"/>
</g>
</svg>
