<svg width="21" height="21" viewBox="0 0 21 21" fill="none" xmlns="http://www.w3.org/2000/svg">
<g clip-path="url(#clip0_3163_4364)">
<path d="M10.2891 17.9577C9.70573 17.9577 9.21267 17.7563 8.8099 17.3535C8.40712 16.9507 8.20573 16.4577 8.20573 15.8743C8.20573 15.291 8.40712 14.798 8.8099 14.3952C9.21267 13.9924 9.70573 13.791 10.2891 13.791C10.8724 13.791 11.3655 13.9924 11.7682 14.3952C12.171 14.798 12.3724 15.291 12.3724 15.8743C12.3724 16.4577 12.171 16.9507 11.7682 17.3535C11.3655 17.7563 10.8724 17.9577 10.2891 17.9577ZM5.58073 13.2493L3.83073 11.4577C4.65017 10.6382 5.61198 9.98893 6.71615 9.50977C7.82031 9.0306 9.01128 8.79102 10.2891 8.79102C11.5668 8.79102 12.7578 9.03407 13.862 9.52018C14.9661 10.0063 15.928 10.666 16.7474 11.4993L14.9974 13.2493C14.3863 12.6382 13.678 12.1591 12.8724 11.8118C12.0668 11.4646 11.2057 11.291 10.2891 11.291C9.3724 11.291 8.51128 11.4646 7.70573 11.8118C6.90017 12.1591 6.19184 12.6382 5.58073 13.2493ZM2.03906 9.70768L0.289062 7.95768C1.56684 6.65213 3.0599 5.63129 4.76823 4.89518C6.47656 4.15907 8.31684 3.79102 10.2891 3.79102C12.2613 3.79102 14.1016 4.15907 15.8099 4.89518C17.5182 5.63129 19.0113 6.65213 20.2891 7.95768L18.5391 9.70768C17.4696 8.63824 16.23 7.80143 14.8203 7.19727C13.4106 6.5931 11.9002 6.29102 10.2891 6.29102C8.67795 6.29102 7.16753 6.5931 5.75781 7.19727C4.34809 7.80143 3.10851 8.63824 2.03906 9.70768Z" fill="#262626"/>
</g>
<defs>
<clipPath id="clip0_3163_4364">
<rect width="20" height="20" fill="white" transform="translate(0.289062 0.458984)"/>
</clipPath>
</defs>
</svg>
